<svg xmlns="http://www.w3.org/2000/svg" x="0px" y="0px" width="100" height="100" viewBox="0 0 50 50">
<path d="M 13 5 L 16 14 L 16 20 L 18 20 L 18 14 L 21 5 L 19 5 L 17 11 L 15 5 L 13 5 z M 24 9 C 22.9 9 22.400781 9.1992188 21.800781 9.6992188 C 21.100781 10.199219 21 10.6 21 12 L 21 17 C 21 18 21.200781 18.699219 21.800781 19.199219 C 22.400781 19.799219 23 20 24 20 C 25.1 20 25.599219 19.799219 26.199219 19.199219 C 26.899219 18.699219 27 18 27 17 L 27 12 C 27 11.1 26.799219 10.299219 26.199219 9.6992188 C 25.599219 9.0992188 25 9 24 9 z M 29 9 L 29 18 C 29 19 30 20 31 20 C 32 20 32.6 19.5 33 19 L 33 20 L 35 20 L 35 9 L 33 9 L 33 17 C 33 17.7 32.2 18 32 18 C 31.8 18 31 18 31 17 L 31 9 L 29 9 z M 24 11 C 24.3 11 25 11 25 12 L 25 17 C 25 18 24.3 18 24 18 C 23.7 18 23 18 23 17 L 23 12 C 23 11.2 23.4 11 24 11 z M 24.949219 21.886719 C 19.899219 21.874219 14.850781 21.9 9.8007812 22 C 9.1007813 22 8.4007812 22.100781 7.8007812 22.300781 C 7.3007812 22.500781 6.8007812 22.7 6.3007812 23 C 5.8007812 23.4 5.3003906 23.800391 4.9003906 24.400391 C 4.6003906 24.800391 4.4007812 25.199609 4.3007812 25.599609 C 4.1007812 26.299609 4 27.100781 4 27.800781 C 3.9 31.100781 3.9 34.399609 4 37.599609 C 4 38.199609 4.1007813 38.8 4.3007812 39.5 C 4.6007812 40.6 5.1996094 41.7 6.0996094 42.5 C 6.3996094 42.7 6.6003906 42.899609 6.9003906 43.099609 C 7.3003906 43.299609 7.6 43.499609 8 43.599609 C 8.6 43.899609 9.2007812 44 9.8007812 44 C 19.900781 44.2 29.999609 44.2 40.099609 44 C 40.799609 44 41.499609 43.899219 42.099609 43.699219 C 42.599609 43.499219 43.099609 43.3 43.599609 43 C 44.099609 42.6 44.6 42.199609 45 41.599609 C 45.3 41.199609 45.499609 40.800391 45.599609 40.400391 C 45.799609 39.700391 46 38.999219 46 38.199219 L 46 27.900391 C 46 27.200391 45.899609 26.399219 45.599609 25.699219 C 45.499609 25.299219 45.3 24.9 45 24.5 C 44.6 24 44.199219 23.499609 43.699219 23.099609 C 43.199219 22.799609 42.699219 22.500781 42.199219 22.300781 C 41.499219 22.100781 40.799609 22 40.099609 22 C 35.049609 21.95 29.999219 21.899219 24.949219 21.886719 z M 32.583984 23.916016 C 35.093359 23.925391 37.599609 23.95 40.099609 24 C 40.499609 24 40.900781 24.099219 41.300781 24.199219 C 41.900781 24.399219 42.5 24.699609 43 25.099609 C 43.2 25.299609 43.300391 25.399609 43.400391 25.599609 C 43.600391 25.899609 43.700781 26.100391 43.800781 26.400391 C 44.000781 26.900391 44 27.300781 44 27.800781 L 44 38.099609 C 44 38.599609 43.900781 39.1 43.800781 39.5 C 43.700781 39.8 43.600391 40.100781 43.400391 40.300781 C 43.300391 40.500781 43.1 40.700781 43 40.800781 C 42.5 41.300781 42.000781 41.599219 41.300781 41.699219 C 40.900781 41.799219 40.499609 41.800391 40.099609 41.900391 C 29.999609 42.100391 20.000391 42 9.9003906 42 C 9.5003906 42 8.9996094 41.900781 8.5996094 41.800781 C 8.2996094 41.700781 8.1003906 41.6 7.9003906 41.5 C 7.7003906 41.4 7.5003906 41.199609 7.4003906 41.099609 C 6.8003906 40.499609 6.3992188 39.8 6.1992188 39 C 5.9992188 38.5 6 37.999609 6 37.599609 C 5.9 34.399609 6 31.100391 6 27.900391 C 6 27.400391 6.0992187 26.9 6.1992188 26.5 C 6.2992187 26.2 6.3996094 25.899609 6.5996094 25.599609 C 6.6996094 25.399609 6.9 25.199609 7 25.099609 C 7.5 24.599609 8.0992188 24.299219 8.6992188 24.199219 C 9.0992187 23.999219 9.6 24 10 24 C 17.5 24 25.055859 23.887891 32.583984 23.916016 z M 11 26 L 11 28 L 13 28 L 13 40 L 15 40 L 15 28 L 17 28 L 17 26 L 11 26 z M 26 26 L 26 40 L 28 40 L 28 39 C 28.4 39.5 28.9 40 30 40 C 30.6 40 31.100391 39.499609 31.400391 39.099609 C 31.700391 38.699609 32 38.2 32 37.5 L 32 31.5 C 32 30.6 31.700391 29.999609 31.400391 29.599609 C 31.100391 29.099609 30.500391 28.900391 29.900391 28.900391 C 29.500391 28.900391 29.200391 28.999219 28.900391 29.199219 C 28.600391 29.399219 28.2 29.6 28 30 L 28 26 L 26 26 z M 36.300781 28.900391 C 35.300781 28.900391 34.5 29.099609 34 29.599609 C 33.4 30.199609 33.099609 30.900781 33.099609 31.800781 L 33.099609 36.5 C 33.099609 37.5 33.400391 38.300391 33.900391 38.900391 C 34.400391 39.500391 35.099609 39.800781 36.099609 39.800781 C 37.099609 39.800781 37.900391 39.6 38.400391 39 C 38.900391 38.5 39 37.699609 39 36.599609 L 39 36 L 37 36 L 37 36.400391 C 37 37.000391 36.900781 37.399609 36.800781 37.599609 C 36.700781 37.799609 36.4 37.900391 36 37.900391 C 35.6 37.900391 35.299219 37.799609 35.199219 37.599609 C 35.099219 37.399609 35 37.1 35 36.5 L 35 35 L 39.099609 35 L 39.099609 31.699219 C 39.099609 30.799219 38.900391 30.099609 38.400391 29.599609 C 37.900391 29.099609 37.300781 28.900391 36.300781 28.900391 z M 18 29 L 18 38 C 18 38.6 18.3 38.899219 18.5 39.199219 C 18.8 39.599219 19.300781 40 19.800781 40 C 20.200781 40 20.6 40.000781 21 39.800781 C 21.4 39.600781 21.6 39.4 22 39 L 22 40 L 24 40 L 24 29 L 22 29 L 22 37 C 21.8 37.2 21.8 38 21 38 C 20.3 38 20 37.2 20 37 L 20 29 L 18 29 z M 29 30.5 C 29.6 30.5 30 31 30 32 L 30 37 C 30 37.6 29.6 38 29 38 C 28.4 38 28 37.8 28 37.5 L 28 31.5 C 28 31 28.4 30.5 29 30.5 z M 36 31 C 36.6 31 37 31.4 37 32 L 37 33 L 35 33 L 35 32 C 35 31.5 35.4 31 36 31 z"></path>
</svg>